<svg width="65" height="33" viewBox="0 0 65 33" fill="none" xmlns="http://www.w3.org/2000/svg">
<path d="M33.9872 8.75811C34.9248 8.7073 35.808 7.90389 35.7568 6.97346C35.7056 6.04303 34.7392 5.34124 33.8016 5.39205C33.5456 5.40475 32.7712 5.44921 32.7712 5.44921L32.9568 8.81527C32.9568 8.81527 33.7312 8.77399 33.9872 8.75811Z" fill="#FFC121"/>
<path d="M22.9216 5.51272C21.0816 5.61434 19.6768 7.34182 19.7792 9.16775C19.8816 10.9937 21.4688 12.5592 23.3056 12.4608C25.1456 12.3592 26.5504 10.6285 26.448 8.80574C26.3456 6.97981 24.7584 5.41428 22.9216 5.51272Z" fill="#FFC121"/>
<path d="M38.1952 19.5835C37.9392 19.6248 37.1776 19.7454 37.1776 19.7454L37.7184 23.0734C37.7184 23.0734 38.4832 22.9495 38.736 22.9114C39.6608 22.7622 40.4544 21.8699 40.304 20.9521C40.1536 20.0344 39.12 19.4342 38.192 19.5835H38.1952Z" fill="#FFC121"/>
<path d="M61.7248 10.3395L52.8768 11.759L53.4336 0L0 1.01617L1.008 19.1738L22.0064 17.5638L24.7488 32.6667L64 26.8777L61.7248 10.3363V10.3395ZM44.7936 1.69256C48.1792 1.50838 51.088 4.09326 51.2736 7.45297C51.4592 10.8127 48.8544 13.6992 45.4688 13.8834C42.0832 14.0676 39.1744 11.4827 38.9888 8.123C38.8032 4.76329 41.408 1.87674 44.7936 1.69256ZM33.6576 2.76906C36.0544 2.63886 38.1088 4.46162 38.24 6.84326C38.3104 8.08807 37.8368 9.24079 37.0304 10.0728L38.7584 12.6958L36.5376 14.1343L34.688 11.3208C34.5088 11.3525 34.3264 11.3747 34.1376 11.3874C33.8816 11.4001 33.1072 11.4446 33.1072 11.4446L33.2672 14.3185L30.6208 14.4614L29.984 2.96912C29.984 2.96912 32.7424 2.81987 33.6608 2.76906H33.6576ZM14.7552 15.6871L13.3536 9.6155L11.5456 15.5379L8.8992 15.6808L6.448 9.99021L5.7248 16.1825L3.0912 15.8808L4.4256 4.42351L6.8736 4.29014L9.9936 11.5335L12.2976 3.99164L14.7424 3.85827L17.3376 15.0965L14.752 15.6839L14.7552 15.6871ZM23.456 15.0838C20.0704 15.2679 17.1616 12.6831 16.976 9.32335C16.7904 5.96364 19.3952 3.07709 22.7808 2.89291C26.1664 2.70873 29.0752 5.29361 29.2608 8.65332C29.4464 12.013 26.8416 14.8996 23.456 15.0838ZM30.8608 29.9738C28.816 30.3009 27.216 29.4467 26.8576 29.2498L28.2816 26.8554C28.6976 27.0619 29.2896 27.7033 30.4544 27.516C31.4304 27.3604 31.7056 26.6681 31.6896 26.2997C31.6768 26.0457 31.5552 25.4392 29.7184 25.3947C29.6896 25.3947 29.6352 25.3947 29.6064 25.3947C26.752 25.3439 25.1328 24.2293 24.7936 22.1588C24.5184 20.4631 25.7824 18.4593 28.3808 18.0434C30.5184 17.7004 32.176 18.6435 32.4256 18.7928C32.5024 18.8372 32.7328 18.9738 32.7328 18.9738L31.2992 21.3618C31.2992 21.3618 31.0528 21.203 30.9632 21.1617C30.4736 20.9363 29.968 20.4409 28.8032 20.6282C27.8272 20.7838 27.5072 21.3586 27.5552 21.7174C27.5936 22.0096 27.6896 22.5685 29.5776 22.6129C29.6064 22.6129 29.6608 22.6129 29.6896 22.6129C32.512 22.6637 34.112 23.7784 34.4512 25.8583C34.7264 27.5541 33.4624 29.5578 30.864 29.9738H30.8608ZM39.168 25.509C38.912 25.5503 38.1504 25.671 38.1504 25.671L38.6144 28.5131L35.9968 28.9322L34.144 17.5702C34.144 17.5702 36.8704 17.132 37.7792 16.9859C40.1504 16.6048 42.384 18.2053 42.768 20.5584C43.152 22.9114 41.5392 25.128 39.168 25.509ZM44.9504 27.5477L43.0976 16.1857L45.7152 15.7665L47.568 27.1285L44.9504 27.5477ZM54.784 25.9695L50.1856 20.3742L51.1904 26.5442L48.5728 26.9634L46.72 15.6045L49.3248 15.1854L53.9488 20.7934L52.9376 14.5979L55.5552 14.1787L57.408 25.5471L54.7776 25.9695H54.784ZM56.5632 14.0136L59.5072 13.5405L60.4672 21.4888L58.176 21.8572L56.5632 14.0136ZM59.9136 25.1343L59.8624 25.1438C59.1552 25.2582 58.4864 24.7787 58.3712 24.0769C58.256 23.3751 58.7392 22.7114 59.4464 22.5971L59.4976 22.5875C60.2048 22.4732 60.8736 22.9527 60.9888 23.6545C61.104 24.3563 60.6208 25.02 59.9136 25.1343Z" fill="#FFC121"/>
<path d="M45.3216 11.2604C47.1616 11.1588 48.5664 9.42814 48.464 7.60539C48.3616 5.77946 46.7744 4.21393 44.9376 4.31237C43.0976 4.41398 41.6928 6.14147 41.7952 7.9674C41.8976 9.79333 43.4848 11.3589 45.3216 11.2604Z" fill="#FFC121"/>
</svg>
