<?xml version="1.0" encoding="UTF-8"?>
<svg id="Layer_2" xmlns="http://www.w3.org/2000/svg" version="1.1" viewBox="0 0 1000 499.9">
  <!-- Generator: Adobe Illustrator 29.2.1, SVG Export Plug-In . SVG Version: 2.1.0 Build 116)  -->
  <defs>
    <style>
      .st0 {
        fill: #fff;
      }
    </style>
  </defs>
  <g id="text">
    <g>
      <path class="st0" d="M64.8,143.7c-.2-66.9,42.5-103.9,121-104.2,56.6-.2,66.6,36.8,66.7,50.2,0,25.8-36.4,53.1-36.4,53.1,0,0,2,16,33.3,15.9,31.3-.1,61.7-20.8,61.5-72.4C310.7,26.9,248.6-.2,187.1,0,135.8.2-.5,7.4,0,142.7c.4,120.2,227.1,130.8,227.4,207.8.3,83.6-93.5,106.1-125.1,106.2-31.6.1-44.6-22.6-44.7-35-.2-67.7,67.1-86.5,67.1-86.5,0-5-3.9-27.5-30-27.5-67.2.2-93.9,58-93.7,114.5.2,48,34.1,78,85.3,77.8,97.9-.4,208.3-48.1,207.9-154.3-.4-99.2-229-125.2-229.3-201.9h0Z"/>
      <path class="st0" d="M998.1,409.6c-.8-1.9-3-1.4-5.9,1-11.1,9.2-36.5,35.1-96,35.4-108.3.4-127.2-178.2-127.2-178.2,0,0,82.6-61.7,95.5-86.6s-28.2-30.4-28.2-30.4c0,0-57.8,70.3-98.7,91,4.4-30.6,34.7-100.3,36.5-140.4,1.8-40.1-48.2-30.3-56.2-26.5,0,17.5-44.1,176.4-60.2,263.7-9.5,15.1-23,32.5-35.1,32.5-7,0-9.6-13-9.7-31.7,0-25.9,14.2-67.3,14.1-92.5,0-17.4-8-18.5-14.9-18.4-1.5,0-9.8.2-11.3.2-17.6,0-11.9-15.1-27.7-15-48.7.2-110.7,53.3-113.4,133.6-16.4,10.9-39.4,24.6-51.2,24.6-12.3,0-15.4-11.4-15.4-21.2,0-17.3,28-120.1,28-120.1,0,0,35.6-9.1,51.2-12.2,11.8-2.3,15-3.1,19.7-8.8,4.7-5.7,13.5-17.4,20.7-28,7.2-10.6.1-18.7-13.2-18.7-17.5,0-64.4,11.1-64.4,11.1,0,0,22.5-97.1,22.5-99.1,0-2-2.6-3-6.3-3-8.5,0-23.8,4.6-33.5,8.1-14.9,5.3-27.1,23.6-29.5,32.1s-19.3,75.2-19.3,75.2c0,0-90.3,31.2-102.7,35.9-.8.3-1.3,1-1.3,1.8,0,.8,10.4,40.3,31.5,40.3,15.3,0,59.6-18.2,59.6-18.2,0,0-22.9,91-22.8,121.3,0,19.5,9.2,42.2,47.1,42.1,35.4-.1,66.3-18.2,83.6-31,9.5,24,31.8,30.5,47.1,30.5,34.3-.1,60.7-27.3,64-31,4.5,10.5,14.9,30.7,38.8,30.6,13.5,0,27.5-15.3,37.9-29.9-.2,3.6-.2,6.7.1,9.2,4.1,37.7,60.1,15.5,63.1,10.3,1.9-27.2.7-83,11.6-117.4,14.4,117.4,69.2,196.3,167.7,195.9,55.1-.2,83.2-16,95-29.1,13.5-15,10.8-33.5,8.5-39h0ZM525.6,370.9c-47.3.2,14.5-122.5,54.8-122.6,0,15.8-.8,122.4-54.8,122.6Z"/>
    </g>
    <path class="st0" d="M912.1,408.5c42.7-.1,75.8-28.3,81.8-37.4,7.8-11.9-9.1-29.9-14.5-29.5-13.5,12.9-27.6,28.5-59.2,28.6-37.2.1-28.8-40.9-28.8-40.9,0,0,71.7,9.3,100.5-42.3,9.2-16.5,9.6-39.3,5.9-49.1-3.8-10-24.5-28-57.7-25.2-40.8,3.4-92.1,45.9-103.4,97-9.1,41,8.1,99.1,75.4,98.8h0ZM957.7,236.5c6.7-.2,6.1,10.8,4.3,22.4-2.5,15.7-24.1,55.5-65.1,54,2.8-23.2,33.3-75.4,60.8-76.4h0Z"/>
    <g>
      <path class="st0" d="M454,489.7c0-5.5,4.6-10.1,10.1-10.1s10.1,4.6,10.1,10.1-4.6,10.1-10.1,10.1-10.1-4.6-10.1-10.1Z"/>
      <g>
        <path class="st0" d="M483.7,431.9c0-5.3,4.2-9.5,9.5-9.5s9.5,4.2,9.5,9.5-4.2,9.7-9.5,9.7-9.5-4.3-9.5-9.7ZM484.9,498.6v-52.4h16.7v52.4h-16.7Z"/>
        <path class="st0" d="M518.1,484.5v-23.7h-8.7v-14.5h8.7v-14.3h16.6v14.3h10.6v14.5h-10.6v19.1c0,3,1.7,5.3,4.7,5.3s3.7-.7,4.2-1.3l3.3,12.6c-2.1,2-6.2,3.5-12.4,3.5-10.6,0-16.4-5.3-16.4-15.4Z"/>
      </g>
    </g>
  </g>
</svg>